<?xml version="1.0" standalone="no"?>
<!DOCTYPE svg PUBLIC "-//W3C//DTD SVG 20010904//EN"
 "http://www.w3.org/TR/2001/REC-SVG-20010904/DTD/svg10.dtd">
<svg version="1.0" xmlns="http://www.w3.org/2000/svg"
 width="50.000000pt" height="50.000000pt" viewBox="0 0 50.000000 50.000000"
 preserveAspectRatio="xMidYMid meet">

<g transform="translate(0.000000,50.000000) scale(0.100000,-0.100000)"
fill="#000000" stroke="none">
<path d="M152 445 c-16 -20 -29 -25 -66 -25 -78 0 -86 -16 -86 -170 0 -181
-17 -170 250 -170 267 0 250 -11 250 170 0 154 -8 170 -86 170 -37 0 -50 5
-66 25 -18 23 -26 25 -98 25 -72 0 -80 -2 -98 -25z m186 -20 c16 -21 29 -25
69 -25 27 0 54 -5 61 -12 17 -17 17 -259 0 -276 -17 -17 -419 -17 -436 0 -17
17 -17 259 0 276 7 7 34 12 61 12 40 0 53 4 69 25 17 22 27 25 88 25 61 0 71
-3 88 -25z"/>
<path d="M190 363 c-95 -49 -87 -193 13 -232 105 -40 206 61 166 166 -27 70
-111 101 -179 66z m110 -18 c32 -17 60 -61 60 -95 0 -53 -57 -110 -110 -110
-53 0 -110 57 -110 110 0 33 28 78 58 94 35 20 66 20 102 1z"/>
<path d="M192 307 c-50 -53 -13 -137 59 -137 47 0 79 34 79 81 0 71 -90 107
-138 56z m102 -13 c20 -20 20 -68 0 -88 -20 -20 -68 -20 -88 0 -20 20 -20 68
0 88 8 9 28 16 44 16 16 0 36 -7 44 -16z"/>
</g>
</svg>
