<?xml version="1.0" standalone="no"?>
<!DOCTYPE svg PUBLIC "-//W3C//DTD SVG 20010904//EN"
 "http://www.w3.org/TR/2001/REC-SVG-20010904/DTD/svg10.dtd">
<svg version="1.0" xmlns="http://www.w3.org/2000/svg"
 width="64.000000pt" height="64.000000pt" viewBox="0 0 64.000000 64.000000"
 preserveAspectRatio="xMidYMid meet">

<g transform="translate(0.000000,64.000000) scale(0.100000,-0.100000)"
fill="#000000" stroke="none">
<path d="M181 494 c-12 -15 -21 -33 -21 -40 0 -8 -9 -14 -19 -14 -11 0 -29
-12 -40 -26 -18 -23 -21 -41 -21 -130 0 -94 2 -105 24 -131 l24 -28 145 0
c140 0 146 1 171 24 14 14 26 31 26 38 0 8 8 16 18 20 9 3 27 15 40 26 20 19
22 29 22 127 0 93 -3 111 -21 134 l-20 26 -154 0 -154 0 -20 -26z m314 -47
c11 -41 1 -180 -12 -185 -10 -3 -13 14 -13 61 0 50 -5 70 -21 91 -20 25 -24
26 -125 26 -86 0 -104 3 -104 15 0 13 22 15 135 15 131 0 135 -1 140 -23z
m-81 -73 c3 -9 6 -32 6 -51 0 -35 0 -35 -25 -19 -34 23 -38 21 -95 -29 -28
-25 -54 -45 -58 -45 -5 0 -23 11 -41 24 -19 14 -40 22 -51 19 -18 -5 -20 0
-20 40 0 79 -4 77 145 77 112 0 134 -2 139 -16z"/>
<path d="M217 343 c-3 -5 -2 -15 3 -22 10 -17 43 -6 38 12 -6 15 -34 22 -41
10z"/>
</g>
</svg>
