<svg width="22" height="19" viewBox="0 0 22 19" fill="none" xmlns="http://www.w3.org/2000/svg">
<path opacity="1" d="M8.4529 12.0994C8.13402 11.7834 7.88118 11.4071 7.70913 10.9924C7.53707 10.5778 7.44922 10.133 7.4507 9.68411C7.44945 9.00643 7.64932 8.34361 8.025 7.77958C8.40067 7.21556 8.93527 6.77569 9.56109 6.51567C10.1869 6.25566 10.8758 6.18719 11.5406 6.31893C12.2053 6.45068 12.816 6.77671 13.2954 7.25575" stroke="white" stroke-width="0.8" stroke-linecap="round" stroke-linejoin="round"/>
<path opacity="1" d="M14.2433 10.2923C14.1192 10.9764 13.7897 11.6064 13.2986 12.0985C12.8075 12.5906 12.1782 12.9214 11.4944 13.0469" stroke="white" stroke-width="0.8" stroke-linecap="round" stroke-linejoin="round"/>
<path opacity="1" d="M5.08705 15.4645C3.21693 13.9202 1.76243 11.933 0.855774 9.6835C1.7732 7.42256 3.23799 5.42499 5.11851 3.87027C6.7439 2.53542 8.7758 1.79458 10.8789 1.76999C12.9917 1.79766 15.0316 2.54634 16.6607 3.89199" stroke="white" stroke-width="0.8" stroke-linecap="round" stroke-linejoin="round"/>
<path opacity="1" d="M18.9492 6.27432C19.7324 7.32929 20.3878 8.47328 20.9019 9.68241C18.7702 14.6211 15.0037 17.5955 10.8784 17.5955C9.94569 17.5953 9.01915 17.4442 8.1347 17.148" stroke="white" stroke-width="0.8" stroke-linecap="round" stroke-linejoin="round"/>
<path opacity="1" d="M19.4253 1.13681L2.33276 18.2293" stroke="white" stroke-width="0.8" stroke-linecap="round" stroke-linejoin="round"/>
</svg>
